<svg width="20" height="20" viewBox="0 0 20 20" fill="none" xmlns="http://www.w3.org/2000/svg">
<path d="M15.1167 18.0168C14.3834 18.2335 13.5167 18.3335 12.5001 18.3335H7.50006C6.48339 18.3335 5.61673 18.2335 4.88339 18.0168C5.06673 15.8501 7.29173 14.1418 10.0001 14.1418C12.7084 14.1418 14.9334 15.8501 15.1167 18.0168Z" stroke="white" stroke-width="1.5" stroke-linecap="round" stroke-linejoin="round"/>
<path d="M12.5001 1.6669H7.50006C3.33339 1.6669 1.66672 3.33357 1.66672 7.50024V12.5002C1.66672 15.6502 2.61673 17.3752 4.88339 18.0169C5.06672 15.8502 7.29172 14.1419 10.0001 14.1419C12.7084 14.1419 14.9334 15.8502 15.1167 18.0169C17.3834 17.3752 18.3334 15.6502 18.3334 12.5002V7.50024C18.3334 3.33357 16.6667 1.6669 12.5001 1.6669ZM10.0001 11.8086C8.35006 11.8086 7.01672 10.4669 7.01672 8.81692C7.01672 7.16692 8.35006 5.83357 10.0001 5.83357C11.6501 5.83357 12.9834 7.16692 12.9834 8.81692C12.9834 10.4669 11.6501 11.8086 10.0001 11.8086Z" stroke="white" stroke-width="1.5" stroke-linecap="round" stroke-linejoin="round"/>
<path d="M12.9833 8.81645C12.9833 10.4664 11.65 11.8081 9.99999 11.8081C8.34999 11.8081 7.01666 10.4664 7.01666 8.81645C7.01666 7.16645 8.34999 5.8331 9.99999 5.8331C11.65 5.8331 12.9833 7.16645 12.9833 8.81645Z" stroke="white" stroke-width="1.5" stroke-linecap="round" stroke-linejoin="round"/>
</svg>
