<svg width="24" height="25" viewBox="0 0 24 25" fill="none" xmlns="http://www.w3.org/2000/svg">
<circle cx="12" cy="12.5" r="11.5" fill="#FEFEFE" fill-opacity="0.04" stroke="#505050"/>
<path d="M15.7317 7.52515H10.0453C9.37006 7.52515 8.80142 8.09379 8.80142 8.76905V9.30215H8.44602C7.66414 9.30215 7.02441 9.94187 7.02441 10.7238V16.0548C7.02441 16.8366 7.66414 17.4764 8.44602 17.4764H13.777C14.5589 17.4764 15.1986 16.8366 15.1986 16.0548V15.6994H15.7317C16.407 15.6994 16.9756 15.1307 16.9756 14.4555V8.76905C16.9756 8.09379 16.407 7.52515 15.7317 7.52515ZM14.4878 16.0548C14.4878 16.4457 14.168 16.7656 13.777 16.7656H8.44602C8.05508 16.7656 7.73522 16.4457 7.73522 16.0548V10.7238C7.73522 10.3328 8.05508 10.013 8.44602 10.013H13.777C14.168 10.013 14.4878 10.3328 14.4878 10.7238V16.0548ZM16.2648 14.4555C16.2648 14.7398 16.0161 14.9886 15.7317 14.9886H15.1986V10.7238C15.1986 9.94187 14.5589 9.30215 13.777 9.30215H9.51222V8.76905C9.51222 8.48473 9.761 8.23595 10.0453 8.23595H15.7317C16.0161 8.23595 16.2648 8.48473 16.2648 8.76905V14.4555Z" fill="#E06963"/>
</svg>
