<svg width="29" height="24" viewBox="0 0 29 24" fill="none" xmlns="http://www.w3.org/2000/svg">
<path d="M4.63529 16.6735V16.679H9.46727V16.6735H4.63529Z" fill="#CE1A11"/>
<path d="M18.8776 21.6185L17.7475 19.6614L16.0275 16.6818L15.49 15.7501L16.2535 14.4298L16.7249 13.6139L18.1251 11.191L19.4262 8.93902L19.4151 8.92248L18.1251 6.68428L15.5672 2.25474L14.2607 0L12.9596 2.25198L10.3273 6.81107L9.02624 9.06305L5.9308 14.4243L4.63529 16.6707H9.46727V16.6762H13.4227L14.1862 17.9966L16.2756 21.6157H4.37895L5.9501 18.8951H3.35081L1.77966 21.6157L0.478638 23.8705H20.1787L18.8776 21.6185ZM13.646 14.427H8.53285L10.33 11.3178L11.631 9.06581L14.2634 4.50672L16.8214 8.93626L14.189 13.4953L13.6487 14.427H13.646Z" fill="#CE1A11"/>
<path d="M28.0427 23.8704H22.7063L21.4052 21.6185H24.1396L21.2867 16.679L19.9885 14.427L19.3931 13.3934L20.6941 11.1414L22.5877 14.427L23.8915 16.679L26.7416 21.6185L28.0427 23.8704Z" fill="#CE1A11"/>
</svg>
