<svg width="21" height="20" viewBox="0 0 21 20" fill="none" xmlns="http://www.w3.org/2000/svg">
<path d="M18.8333 6.8915V3.52484C18.8333 2.19984 18.3 1.6665 16.975 1.6665H13.6083C12.2833 1.6665 11.75 2.19984 11.75 3.52484V6.8915C11.75 8.2165 12.2833 8.74984 13.6083 8.74984H16.975C18.3 8.74984 18.8333 8.2165 18.8333 6.8915Z" stroke="#CE1A11" stroke-width="1.5" stroke-linecap="round" stroke-linejoin="round"/>
<path d="M9.2502 7.09984V3.3165C9.2502 2.1415 8.71687 1.6665 7.39187 1.6665H4.0252C2.7002 1.6665 2.16687 2.1415 2.16687 3.3165V7.0915C2.16687 8.27484 2.7002 8.7415 4.0252 8.7415H7.39187C8.71687 8.74984 9.2502 8.27484 9.2502 7.09984Z" stroke="#CE1A11" stroke-width="1.5" stroke-linecap="round" stroke-linejoin="round"/>
<path d="M9.2502 16.475V13.1083C9.2502 11.7833 8.71687 11.25 7.39187 11.25H4.0252C2.7002 11.25 2.16687 11.7833 2.16687 13.1083V16.475C2.16687 17.8 2.7002 18.3333 4.0252 18.3333H7.39187C8.71687 18.3333 9.2502 17.8 9.2502 16.475Z" stroke="#CE1A11" stroke-width="1.5" stroke-linecap="round" stroke-linejoin="round"/>
<path d="M13 12.9165H18" stroke="#CE1A11" stroke-width="1.5" stroke-linecap="round"/>
<path d="M13 16.25H18" stroke="#CE1A11" stroke-width="1.5" stroke-linecap="round"/>
</svg>
