<svg width="24" height="24" viewBox="0 0 24 24" fill="none" xmlns="http://www.w3.org/2000/svg">
<path d="M8.00416 11.407C8.1618 11.5742 8.25668 11.8006 8.24665 12.0594L8.11092 15.5617L11.6152 15.6317C12.1158 15.6417 12.5141 16.064 12.4947 16.5644C12.4753 17.0647 12.0449 17.4705 11.5443 17.4605L7.12513 17.3722C6.62452 17.3622 6.22627 16.9399 6.24566 16.4396L6.41683 12.0228C6.43622 11.5225 6.86657 11.1167 7.36718 11.1267C7.62612 11.1318 7.84652 11.2398 8.00416 11.407Z" fill="white"/>
<path d="M20.314 4.0549C20.689 4.45263 20.6185 5.14224 20.1584 5.57609L8.74567 16.3377C8.28557 16.7716 7.59301 16.8015 7.21797 16.4038C6.84293 16.0061 6.91347 15.3165 7.37357 14.8826L18.7863 4.12098C19.2576 3.67654 19.9389 3.65717 20.314 4.0549Z" fill="white"/>
</svg>
