<svg width="25" height="24" viewBox="0 0 25 24" fill="none" xmlns="http://www.w3.org/2000/svg">
<path d="M16.4958 12.593C16.3382 12.4258 16.2433 12.1994 16.2533 11.9406L16.3891 8.4383L12.8848 8.36831C12.3842 8.35831 11.9859 7.93597 12.0053 7.43563C12.0247 6.9353 12.4551 6.5295 12.9557 6.5395L17.3749 6.62776C17.8755 6.63776 18.2737 7.0601 18.2543 7.56044L18.0832 11.9772C18.0638 12.4775 17.6334 12.8833 17.1328 12.8733C16.8739 12.8682 16.6535 12.7602 16.4958 12.593Z" fill="white"/>
<path d="M4.18604 19.9451C3.811 19.5474 3.88153 18.8578 4.34163 18.4239L15.7543 7.66228C16.2144 7.22843 16.907 7.19848 17.282 7.59621C17.6571 7.99394 17.5865 8.68354 17.1264 9.11739L5.71373 19.879C5.24241 20.3235 4.56108 20.3428 4.18604 19.9451Z" fill="white"/>
</svg>
