<svg width="20" height="20" viewBox="0 0 20 20" fill="none" xmlns="http://www.w3.org/2000/svg">
<path d="M10.8333 9.29176H5.83327" stroke="#CE1A11" stroke-width="1.5" stroke-linecap="round" stroke-linejoin="round"/>
<path d="M1.66672 9.29153V5.44153C1.66672 3.74153 3.04173 2.36653 4.74173 2.36653H9.42506C11.1251 2.36653 12.5001 3.42486 12.5001 5.12486" stroke="#CE1A11" stroke-width="1.5" stroke-linecap="round" stroke-linejoin="round"/>
<path d="M14.5667 10.1665C14.15 10.5665 13.9501 11.1832 14.1167 11.8165C14.3251 12.5915 15.0917 13.0832 15.8917 13.0832H16.6667V14.2915C16.6667 16.1332 15.1751 17.6249 13.3334 17.6249H5.00006C3.15839 17.6249 1.66672 16.1332 1.66672 14.2915V8.4582C1.66672 6.61653 3.15839 5.12486 5.00006 5.12486H13.3334C15.1667 5.12486 16.6667 6.62486 16.6667 8.4582V9.66649H15.7667C15.3 9.66649 14.875 9.84985 14.5667 10.1665Z" stroke="#CE1A11" stroke-width="1.5" stroke-linecap="round" stroke-linejoin="round"/>
<path d="M18.3334 10.5164V12.233C18.3334 12.6997 17.95 13.083 17.475 13.083H15.8667C14.9667 13.083 14.1417 12.4247 14.0667 11.5247C14.0167 10.9997 14.2167 10.508 14.5667 10.1664C14.875 9.8497 15.3 9.66634 15.7667 9.66634H17.475C17.95 9.66634 18.3334 10.0497 18.3334 10.5164Z" stroke="#CE1A11" stroke-width="1.5" stroke-linecap="round" stroke-linejoin="round"/>
</svg>
